solid OpenSCAD_Model
  facet normal -1 0 0
    outer loop
      vertex 0 0 0
      vertex 0 32.5 13
      vertex 0 32.5 0
    endloop
  endfacet
  facet normal -1 -0 0
    outer loop
      vertex 0 32.5 13
      vertex 0 0 0
      vertex 0 0 13
    endloop
  endfacet
  facet normal 0 0 1
    outer loop
      vertex 45 32.5 13
      vertex 43 30.5 13
      vertex 45 0 13
    endloop
  endfacet
  facet normal 0 0 1
    outer loop
      vertex 45 32.5 13
      vertex 2 30.5 13
      vertex 43 30.5 13
    endloop
  endfacet
  facet normal 0 0 1
    outer loop
      vertex 2 30.5 13
      vertex 0 32.5 13
      vertex 2 2 13
    endloop
  endfacet
  facet normal -0 0 1
    outer loop
      vertex 0 32.5 13
      vertex 2 30.5 13
      vertex 45 32.5 13
    endloop
  endfacet
  facet normal -0 0 1
    outer loop
      vertex 43 2 13
      vertex 45 0 13
      vertex 43 30.5 13
    endloop
  endfacet
  facet normal 0 0 1
    outer loop
      vertex 40 0 13
      vertex 43 2 13
      vertex 40 2 13
    endloop
  endfacet
  facet normal 0 0 1
    outer loop
      vertex 43 2 13
      vertex 40 0 13
      vertex 45 0 13
    endloop
  endfacet
  facet normal -0 0 1
    outer loop
      vertex 2 2 13
      vertex 16 0 13
      vertex 16 2 13
    endloop
  endfacet
  facet normal 0 0 1
    outer loop
      vertex 2 2 13
      vertex 0 0 13
      vertex 16 0 13
    endloop
  endfacet
  facet normal 0 0 1
    outer loop
      vertex 0 0 13
      vertex 2 2 13
      vertex 0 32.5 13
    endloop
  endfacet
  facet normal -0 0 1
    outer loop
      vertex 29 2 13
      vertex 33 0 13
      vertex 33 2 13
    endloop
  endfacet
  facet normal 0 0 1
    outer loop
      vertex 33 0 13
      vertex 29 2 13
      vertex 29 0 13
    endloop
  endfacet
  facet normal -0 0 1
    outer loop
      vertex 34 2 13
      vertex 39 0 13
      vertex 39 2 13
    endloop
  endfacet
  facet normal 0 0 1
    outer loop
      vertex 39 0 13
      vertex 34 2 13
      vertex 34 0 13
    endloop
  endfacet
  facet normal 1 -0 0
    outer loop
      vertex 45 0 13
      vertex 45 32.5 0
      vertex 45 32.5 13
    endloop
  endfacet
  facet normal 1 0 0
    outer loop
      vertex 45 32.5 0
      vertex 45 0 13
      vertex 45 0 0
    endloop
  endfacet
  facet normal 0 1 -0
    outer loop
      vertex 45 32.5 0
      vertex 0 32.5 13
      vertex 45 32.5 13
    endloop
  endfacet
  facet normal 0 1 0
    outer loop
      vertex 0 32.5 13
      vertex 45 32.5 0
      vertex 0 32.5 0
    endloop
  endfacet
  facet normal 0 0 -1
    outer loop
      vertex 14.4971 15.53 0
      vertex 13.9581 15.53 0
      vertex 14.4971 18.09 0
    endloop
  endfacet
  facet normal 0 0 -1
    outer loop
      vertex 45 0 0
      vertex 20.476 18.09 0
      vertex 45 32.5 0
    endloop
  endfacet
  facet normal 0 0 -1
    outer loop
      vertex 45 0 0
      vertex 18.913 14.25 0
      vertex 20.476 18.09 0
    endloop
  endfacet
  facet normal 0 0 -1
    outer loop
      vertex 0 0 0
      vertex 18.913 14.25 0
      vertex 45 0 0
    endloop
  endfacet
  facet normal 0 0 -1
    outer loop
      vertex 16.746 15.522 0
      vertex 18.375 14.25 0
      vertex 16.746 15.144 0
    endloop
  endfacet
  facet normal 0 0 -1
    outer loop
      vertex 18.375 14.25 0
      vertex 14.9591 14.25 0
      vertex 16.746 15.144 0
    endloop
  endfacet
  facet normal -0 0 -1
    outer loop
      vertex 18.913 14.25 0
      vertex 0 0 0
      vertex 18.375 14.25 0
    endloop
  endfacet
  facet normal -0 0 -1
    outer loop
      vertex 18.375 14.25 0
      vertex 0 0 0
      vertex 14.9591 14.25 0
    endloop
  endfacet
  facet normal 0 0 -1
    outer loop
      vertex 14.4971 14.25 0
      vertex 13.9581 15.144 0
      vertex 14.4971 15.144 0
    endloop
  endfacet
  facet normal -0 0 -1
    outer loop
      vertex 13.9581 15.144 0
      vertex 0 0 0
      vertex 13.9581 15.53 0
    endloop
  endfacet
  facet normal -0 0 -1
    outer loop
      vertex 14.4971 14.25 0
      vertex 0 0 0
      vertex 13.9581 15.144 0
    endloop
  endfacet
  facet normal -0 0 -1
    outer loop
      vertex 14.9591 14.25 0
      vertex 0 0 0
      vertex 14.4971 14.25 0
    endloop
  endfacet
  facet normal 0 0 -1
    outer loop
      vertex 0 32.5 0
      vertex 20.476 18.09 0
      vertex 19.929 18.09 0
    endloop
  endfacet
  facet normal 0 0 -1
    outer loop
      vertex 18.413 15.386 0
      vertex 18.869 15.386 0
      vertex 18.641 14.707 0
    endloop
  endfacet
  facet normal 0 0 -1
    outer loop
      vertex 18.413 15.386 0
      vertex 19.929 18.09 0
      vertex 18.869 15.386 0
    endloop
  endfacet
  facet normal 0 0 -1
    outer loop
      vertex 17.358 18.09 0
      vertex 19.929 18.09 0
      vertex 18.413 15.386 0
    endloop
  endfacet
  facet normal 0 0 -1
    outer loop
      vertex 0 32.5 0
      vertex 19.929 18.09 0
      vertex 17.358 18.09 0
    endloop
  endfacet
  facet normal 0 0 -1
    outer loop
      vertex 0 32.5 0
      vertex 17.358 18.09 0
      vertex 16.812 18.09 0
    endloop
  endfacet
  facet normal 0 0 -1
    outer loop
      vertex 18.375 14.25 0
      vertex 16.746 15.522 0
      vertex 16.812 18.09 0
    endloop
  endfacet
  facet normal 0 0 -1
    outer loop
      vertex 15.007 18.09 0
      vertex 16.812 18.09 0
      vertex 16.746 15.522 0
    endloop
  endfacet
  facet normal 0 0 -1
    outer loop
      vertex 0 32.5 0
      vertex 16.812 18.09 0
      vertex 15.007 18.09 0
    endloop
  endfacet
  facet normal 0 0 -1
    outer loop
      vertex 0 32.5 0
      vertex 15.007 18.09 0
      vertex 14.4971 18.09 0
    endloop
  endfacet
  facet normal 0 0 -1
    outer loop
      vertex 0 32.5 0
      vertex 13.9581 15.53 0
      vertex 0 0 0
    endloop
  endfacet
  facet normal 0 0 -1
    outer loop
      vertex 20.476 18.09 0
      vertex 0 32.5 0
      vertex 45 32.5 0
    endloop
  endfacet
  facet normal 0 0 -1
    outer loop
      vertex 13.9581 15.53 0
      vertex 0 32.5 0
      vertex 14.4971 18.09 0
    endloop
  endfacet
  facet normal -0 0 -1
    outer loop
      vertex 16.746 15.144 0
      vertex 14.9591 14.25 0
      vertex 14.9591 15.144 0
    endloop
  endfacet
  facet normal 0 0 -1
    outer loop
      vertex 14.9591 15.53 0
      vertex 16.2521 15.584 0
      vertex 16.2951 15.53 0
    endloop
  endfacet
  facet normal 0 0 -1
    outer loop
      vertex 14.9591 15.53 0
      vertex 16.1071 15.783 0
      vertex 16.2521 15.584 0
    endloop
  endfacet
  facet normal 0 0 -1
    outer loop
      vertex 14.9591 15.53 0
      vertex 15.1391 17.217 0
      vertex 16.1071 15.783 0
    endloop
  endfacet
  facet normal 0 0 -1
    outer loop
      vertex 14.9591 15.53 0
      vertex 15.0953 17.287 0
      vertex 15.1391 17.217 0
    endloop
  endfacet
  facet normal 0 0 -1
    outer loop
      vertex 14.9591 15.53 0
      vertex 15.0341 17.395 0
      vertex 15.0953 17.287 0
    endloop
  endfacet
  facet normal 0 0 -1
    outer loop
      vertex 14.9591 15.53 0
      vertex 14.9803 17.4942 0
      vertex 15.0341 17.395 0
    endloop
  endfacet
  facet normal -0 0 -1
    outer loop
      vertex 14.9803 17.4942 0
      vertex 14.9591 15.53 0
      vertex 14.9591 17.538 0
    endloop
  endfacet
  facet normal 0 -1 0
    outer loop
      vertex 0 0 13
      vertex 16 0 7
      vertex 16 0 13
    endloop
  endfacet
  facet normal 0 -1 0
    outer loop
      vertex 16 0 7
      vertex 33 0 3
      vertex 29 0 7
    endloop
  endfacet
  facet normal 0 -1 0
    outer loop
      vertex 45 0 0
      vertex 34 0 3
      vertex 33 0 3
    endloop
  endfacet
  facet normal 0 -1 0
    outer loop
      vertex 34 0 3
      vertex 45 0 0
      vertex 39 0 3
    endloop
  endfacet
  facet normal 0 -1 0
    outer loop
      vertex 45 0 0
      vertex 33 0 3
      vertex 0 0 0
    endloop
  endfacet
  facet normal 0 -1 -0
    outer loop
      vertex 16 0 7
      vertex 0 0 0
      vertex 33 0 3
    endloop
  endfacet
  facet normal 0 -1 0
    outer loop
      vertex 0 0 0
      vertex 16 0 7
      vertex 0 0 13
    endloop
  endfacet
  facet normal 0 -1 0
    outer loop
      vertex 29 0 7
      vertex 33 0 13
      vertex 29 0 13
    endloop
  endfacet
  facet normal 0 -1 -0
    outer loop
      vertex 33 0 13
      vertex 29 0 7
      vertex 33 0 3
    endloop
  endfacet
  facet normal 0 -1 0
    outer loop
      vertex 34 0 3
      vertex 39 0 13
      vertex 34 0 13
    endloop
  endfacet
  facet normal 0 -1 -0
    outer loop
      vertex 39 0 13
      vertex 34 0 3
      vertex 39 0 3
    endloop
  endfacet
  facet normal 0 -1 0
    outer loop
      vertex 40 0 3
      vertex 45 0 13
      vertex 40 0 13
    endloop
  endfacet
  facet normal 0 -1 0
    outer loop
      vertex 40 0 3
      vertex 45 0 0
      vertex 45 0 13
    endloop
  endfacet
  facet normal 0 -1 0
    outer loop
      vertex 39 0 3
      vertex 45 0 0
      vertex 40 0 3
    endloop
  endfacet
  facet normal 1 -0 0
    outer loop
      vertex 2 2 13
      vertex 2 30.5 2
      vertex 2 30.5 13
    endloop
  endfacet
  facet normal 1 0 0
    outer loop
      vertex 2 30.5 2
      vertex 2 2 13
      vertex 2 2 2
    endloop
  endfacet
  facet normal -1 0 0
    outer loop
      vertex 43 2 2
      vertex 43 30.5 13
      vertex 43 30.5 2
    endloop
  endfacet
  facet normal -1 -0 0
    outer loop
      vertex 43 30.5 13
      vertex 43 2 2
      vertex 43 2 13
    endloop
  endfacet
  facet normal 0 -1 0
    outer loop
      vertex 2 30.5 2
      vertex 43 30.5 13
      vertex 2 30.5 13
    endloop
  endfacet
  facet normal 0 -1 -0
    outer loop
      vertex 43 30.5 13
      vertex 2 30.5 2
      vertex 43 30.5 2
    endloop
  endfacet
  facet normal -0 0 1
    outer loop
      vertex 2 30.5 2
      vertex 43 2 2
      vertex 43 30.5 2
    endloop
  endfacet
  facet normal 0 0 1
    outer loop
      vertex 43 2 2
      vertex 2 30.5 2
      vertex 2 2 2
    endloop
  endfacet
  facet normal 0 1 0
    outer loop
      vertex 43 2 13
      vertex 40 2 3
      vertex 40 2 13
    endloop
  endfacet
  facet normal 0 1 0
    outer loop
      vertex 43 2 2
      vertex 39 2 3
      vertex 40 2 3
    endloop
  endfacet
  facet normal 0 1 0
    outer loop
      vertex 39 2 3
      vertex 43 2 2
      vertex 34 2 3
    endloop
  endfacet
  facet normal 0 1 0
    outer loop
      vertex 34 2 3
      vertex 43 2 2
      vertex 33 2 3
    endloop
  endfacet
  facet normal 0 1 -0
    outer loop
      vertex 43 2 2
      vertex 40 2 3
      vertex 43 2 13
    endloop
  endfacet
  facet normal 0 1 -0
    outer loop
      vertex 39 2 3
      vertex 34 2 13
      vertex 39 2 13
    endloop
  endfacet
  facet normal 0 1 0
    outer loop
      vertex 34 2 13
      vertex 39 2 3
      vertex 34 2 3
    endloop
  endfacet
  facet normal 0 1 0
    outer loop
      vertex 33 2 13
      vertex 29 2 7
      vertex 29 2 13
    endloop
  endfacet
  facet normal 0 1 0
    outer loop
      vertex 29 2 7
      vertex 33 2 3
      vertex 16 2 7
    endloop
  endfacet
  facet normal 0 1 -0
    outer loop
      vertex 33 2 3
      vertex 29 2 7
      vertex 33 2 13
    endloop
  endfacet
  facet normal 0 1 -0
    outer loop
      vertex 16 2 7
      vertex 2 2 13
      vertex 16 2 13
    endloop
  endfacet
  facet normal 0 1 0
    outer loop
      vertex 16 2 7
      vertex 2 2 2
      vertex 2 2 13
    endloop
  endfacet
  facet normal 0 1 0
    outer loop
      vertex 33 2 3
      vertex 2 2 2
      vertex 16 2 7
    endloop
  endfacet
  facet normal 0 1 0
    outer loop
      vertex 2 2 2
      vertex 33 2 3
      vertex 43 2 2
    endloop
  endfacet
  facet normal 0 0 -1
    outer loop
      vertex 18.869 15.386 1
      vertex 20.476 18.09 1
      vertex 18.913 14.25 1
    endloop
  endfacet
  facet normal -0 0 -1
    outer loop
      vertex 20.476 18.09 1
      vertex 18.869 15.386 1
      vertex 19.929 18.09 1
    endloop
  endfacet
  facet normal 0 0 -1
    outer loop
      vertex 18.913 14.25 1
      vertex 18.641 14.707 1
      vertex 18.869 15.386 1
    endloop
  endfacet
  facet normal 0 0 -1
    outer loop
      vertex 18.375 14.25 1
      vertex 18.641 14.707 1
      vertex 18.913 14.25 1
    endloop
  endfacet
  facet normal 0 0 -1
    outer loop
      vertex 18.375 14.25 1
      vertex 18.413 15.386 1
      vertex 18.641 14.707 1
    endloop
  endfacet
  facet normal 0 0 -1
    outer loop
      vertex 16.812 18.09 1
      vertex 18.413 15.386 1
      vertex 18.375 14.25 1
    endloop
  endfacet
  facet normal 0 0 -1
    outer loop
      vertex 18.413 15.386 1
      vertex 16.812 18.09 1
      vertex 17.358 18.09 1
    endloop
  endfacet
  facet normal 0 0 -1
    outer loop
      vertex 13.9581 15.144 1
      vertex 14.4971 15.53 1
      vertex 14.4971 15.144 1
    endloop
  endfacet
  facet normal -0 0 -1
    outer loop
      vertex 14.4971 15.53 1
      vertex 13.9581 15.144 1
      vertex 13.9581 15.53 1
    endloop
  endfacet
  facet normal 0 0 -1
    outer loop
      vertex 14.4971 15.144 1
      vertex 14.9591 15.144 1
      vertex 14.9591 14.25 1
    endloop
  endfacet
  facet normal 0 0 -1
    outer loop
      vertex 14.9591 15.144 1
      vertex 14.4971 15.144 1
      vertex 14.9591 15.53 1
    endloop
  endfacet
  facet normal 0 0 -1
    outer loop
      vertex 14.4971 15.144 1
      vertex 14.9591 14.25 1
      vertex 14.4971 14.25 1
    endloop
  endfacet
  facet normal 0 0 -1
    outer loop
      vertex 16.746 15.144 1
      vertex 16.2951 15.53 1
      vertex 16.746 15.522 1
    endloop
  endfacet
  facet normal 0 0 -1
    outer loop
      vertex 14.9591 15.144 1
      vertex 16.2951 15.53 1
      vertex 16.746 15.144 1
    endloop
  endfacet
  facet normal -0 0 -1
    outer loop
      vertex 16.2951 15.53 1
      vertex 14.9591 15.144 1
      vertex 14.9591 15.53 1
    endloop
  endfacet
  facet normal 0 0 -1
    outer loop
      vertex 16.2521 15.584 1
      vertex 16.746 15.522 1
      vertex 16.2951 15.53 1
    endloop
  endfacet
  facet normal 0 0 -1
    outer loop
      vertex 16.1071 15.783 1
      vertex 16.746 15.522 1
      vertex 16.2521 15.584 1
    endloop
  endfacet
  facet normal 0 0 -1
    outer loop
      vertex 15.1391 17.217 1
      vertex 16.746 15.522 1
      vertex 16.1071 15.783 1
    endloop
  endfacet
  facet normal 0 0 -1
    outer loop
      vertex 15.007 18.09 1
      vertex 15.1391 17.217 1
      vertex 15.0953 17.287 1
    endloop
  endfacet
  facet normal 0 0 -1
    outer loop
      vertex 15.007 18.09 1
      vertex 15.0953 17.287 1
      vertex 15.0341 17.395 1
    endloop
  endfacet
  facet normal 0 0 -1
    outer loop
      vertex 15.1391 17.217 1
      vertex 15.007 18.09 1
      vertex 16.746 15.522 1
    endloop
  endfacet
  facet normal 0 0 -1
    outer loop
      vertex 14.9803 17.4942 1
      vertex 15.007 18.09 1
      vertex 15.0341 17.395 1
    endloop
  endfacet
  facet normal 0 0 -1
    outer loop
      vertex 14.9591 17.538 1
      vertex 15.007 18.09 1
      vertex 14.9803 17.4942 1
    endloop
  endfacet
  facet normal -0 0 -1
    outer loop
      vertex 14.9591 15.53 1
      vertex 14.4971 15.144 1
      vertex 14.4971 15.53 1
    endloop
  endfacet
  facet normal 0 0 -1
    outer loop
      vertex 14.9591 15.53 1
      vertex 14.4971 15.53 1
      vertex 14.9591 17.538 1
    endloop
  endfacet
  facet normal 0 0 -1
    outer loop
      vertex 14.4971 18.09 1
      vertex 14.9591 17.538 1
      vertex 14.4971 15.53 1
    endloop
  endfacet
  facet normal 0 0 -1
    outer loop
      vertex 14.9591 17.538 1
      vertex 14.4971 18.09 1
      vertex 15.007 18.09 1
    endloop
  endfacet
  facet normal 0 -1 0
    outer loop
      vertex 16.812 18.09 0
      vertex 17.358 18.09 1
      vertex 16.812 18.09 1
    endloop
  endfacet
  facet normal 0 -1 -0
    outer loop
      vertex 17.358 18.09 1
      vertex 16.812 18.09 0
      vertex 17.358 18.09 0
    endloop
  endfacet
  facet normal -0.931603 -0.363478 0
    outer loop
      vertex 18.413 15.386 0
      vertex 17.358 18.09 1
      vertex 17.358 18.09 0
    endloop
  endfacet
  facet normal -0.931603 -0.363478 0
    outer loop
      vertex 17.358 18.09 1
      vertex 18.413 15.386 0
      vertex 18.413 15.386 1
    endloop
  endfacet
  facet normal -0.947984 -0.318317 0
    outer loop
      vertex 18.641 14.707 0
      vertex 18.413 15.386 1
      vertex 18.413 15.386 0
    endloop
  endfacet
  facet normal -0.947984 -0.318317 0
    outer loop
      vertex 18.413 15.386 1
      vertex 18.641 14.707 0
      vertex 18.641 14.707 1
    endloop
  endfacet
  facet normal 0.947984 -0.318317 0
    outer loop
      vertex 18.641 14.707 1
      vertex 18.869 15.386 0
      vertex 18.869 15.386 1
    endloop
  endfacet
  facet normal 0.947984 -0.318317 0
    outer loop
      vertex 18.869 15.386 0
      vertex 18.641 14.707 1
      vertex 18.641 14.707 0
    endloop
  endfacet
  facet normal 0.93102 -0.364969 0
    outer loop
      vertex 18.869 15.386 1
      vertex 19.929 18.09 0
      vertex 19.929 18.09 1
    endloop
  endfacet
  facet normal 0.93102 -0.364969 0
    outer loop
      vertex 19.929 18.09 0
      vertex 18.869 15.386 1
      vertex 18.869 15.386 0
    endloop
  endfacet
  facet normal 0 -1 0
    outer loop
      vertex 19.929 18.09 0
      vertex 20.476 18.09 1
      vertex 19.929 18.09 1
    endloop
  endfacet
  facet normal 0 -1 -0
    outer loop
      vertex 20.476 18.09 1
      vertex 19.929 18.09 0
      vertex 20.476 18.09 0
    endloop
  endfacet
  facet normal -0.926214 0.376999 0
    outer loop
      vertex 18.913 14.25 0
      vertex 20.476 18.09 1
      vertex 20.476 18.09 0
    endloop
  endfacet
  facet normal -0.926214 0.376999 0
    outer loop
      vertex 20.476 18.09 1
      vertex 18.913 14.25 0
      vertex 18.913 14.25 1
    endloop
  endfacet
  facet normal 0 1 -0
    outer loop
      vertex 18.913 14.25 0
      vertex 18.375 14.25 1
      vertex 18.913 14.25 1
    endloop
  endfacet
  facet normal 0 1 0
    outer loop
      vertex 18.375 14.25 1
      vertex 18.913 14.25 0
      vertex 18.375 14.25 0
    endloop
  endfacet
  facet normal 0.926215 0.376996 0
    outer loop
      vertex 18.375 14.25 1
      vertex 16.812 18.09 0
      vertex 16.812 18.09 1
    endloop
  endfacet
  facet normal 0.926215 0.376996 0
    outer loop
      vertex 16.812 18.09 0
      vertex 18.375 14.25 1
      vertex 18.375 14.25 0
    endloop
  endfacet
  facet normal 0 1 -0
    outer loop
      vertex 14.4971 15.144 0
      vertex 13.9581 15.144 1
      vertex 14.4971 15.144 1
    endloop
  endfacet
  facet normal 0 1 0
    outer loop
      vertex 13.9581 15.144 1
      vertex 14.4971 15.144 0
      vertex 13.9581 15.144 0
    endloop
  endfacet
  facet normal 1 -0 0
    outer loop
      vertex 13.9581 15.144 1
      vertex 13.9581 15.53 0
      vertex 13.9581 15.53 1
    endloop
  endfacet
  facet normal 1 0 0
    outer loop
      vertex 13.9581 15.53 0
      vertex 13.9581 15.144 1
      vertex 13.9581 15.144 0
    endloop
  endfacet
  facet normal 0 -1 0
    outer loop
      vertex 13.9581 15.53 0
      vertex 14.4971 15.53 1
      vertex 13.9581 15.53 1
    endloop
  endfacet
  facet normal 0 -1 -0
    outer loop
      vertex 14.4971 15.53 1
      vertex 13.9581 15.53 0
      vertex 14.4971 15.53 0
    endloop
  endfacet
  facet normal 1 -0 0
    outer loop
      vertex 14.4971 15.53 1
      vertex 14.4971 18.09 0
      vertex 14.4971 18.09 1
    endloop
  endfacet
  facet normal 1 0 0
    outer loop
      vertex 14.4971 18.09 0
      vertex 14.4971 15.53 1
      vertex 14.4971 15.53 0
    endloop
  endfacet
  facet normal 0 -1 0
    outer loop
      vertex 14.4971 18.09 0
      vertex 15.007 18.09 1
      vertex 14.4971 18.09 1
    endloop
  endfacet
  facet normal 0 -1 -0
    outer loop
      vertex 15.007 18.09 1
      vertex 14.4971 18.09 0
      vertex 15.007 18.09 0
    endloop
  endfacet
  facet normal -0.828012 -0.560711 0
    outer loop
      vertex 16.746 15.522 0
      vertex 15.007 18.09 1
      vertex 15.007 18.09 0
    endloop
  endfacet
  facet normal -0.828012 -0.560711 0
    outer loop
      vertex 15.007 18.09 1
      vertex 16.746 15.522 0
      vertex 16.746 15.522 1
    endloop
  endfacet
  facet normal -1 0 0
    outer loop
      vertex 16.746 15.144 0
      vertex 16.746 15.522 1
      vertex 16.746 15.522 0
    endloop
  endfacet
  facet normal -1 -0 0
    outer loop
      vertex 16.746 15.522 1
      vertex 16.746 15.144 0
      vertex 16.746 15.144 1
    endloop
  endfacet
  facet normal 0 1 -0
    outer loop
      vertex 16.746 15.144 0
      vertex 14.9591 15.144 1
      vertex 16.746 15.144 1
    endloop
  endfacet
  facet normal 0 1 0
    outer loop
      vertex 14.9591 15.144 1
      vertex 16.746 15.144 0
      vertex 14.9591 15.144 0
    endloop
  endfacet
  facet normal -1 0 0
    outer loop
      vertex 14.9591 14.25 0
      vertex 14.9591 15.144 1
      vertex 14.9591 15.144 0
    endloop
  endfacet
  facet normal -1 -0 0
    outer loop
      vertex 14.9591 15.144 1
      vertex 14.9591 14.25 0
      vertex 14.9591 14.25 1
    endloop
  endfacet
  facet normal 0 1 -0
    outer loop
      vertex 14.9591 14.25 0
      vertex 14.4971 14.25 1
      vertex 14.9591 14.25 1
    endloop
  endfacet
  facet normal 0 1 0
    outer loop
      vertex 14.4971 14.25 1
      vertex 14.9591 14.25 0
      vertex 14.4971 14.25 0
    endloop
  endfacet
  facet normal 1 -0 0
    outer loop
      vertex 14.4971 14.25 1
      vertex 14.4971 15.144 0
      vertex 14.4971 15.144 1
    endloop
  endfacet
  facet normal 1 0 0
    outer loop
      vertex 14.4971 15.144 0
      vertex 14.4971 14.25 1
      vertex 14.4971 14.25 0
    endloop
  endfacet
  facet normal 0.78229 0.622914 0
    outer loop
      vertex 16.2951 15.53 1
      vertex 16.2521 15.584 0
      vertex 16.2521 15.584 1
    endloop
  endfacet
  facet normal 0.78229 0.622914 0
    outer loop
      vertex 16.2521 15.584 0
      vertex 16.2951 15.53 1
      vertex 16.2951 15.53 0
    endloop
  endfacet
  facet normal 0.808186 0.588927 0
    outer loop
      vertex 16.2521 15.584 1
      vertex 16.1071 15.783 0
      vertex 16.1071 15.783 1
    endloop
  endfacet
  facet normal 0.808186 0.588927 0
    outer loop
      vertex 16.1071 15.783 0
      vertex 16.2521 15.584 1
      vertex 16.2521 15.584 0
    endloop
  endfacet
  facet normal 0.828836 0.559492 0
    outer loop
      vertex 16.1071 15.783 1
      vertex 15.1391 17.217 0
      vertex 15.1391 17.217 1
    endloop
  endfacet
  facet normal 0.828836 0.559492 0
    outer loop
      vertex 15.1391 17.217 0
      vertex 16.1071 15.783 1
      vertex 16.1071 15.783 0
    endloop
  endfacet
  facet normal 0.847988 0.530016 0
    outer loop
      vertex 15.1391 17.217 1
      vertex 15.0953 17.287 0
      vertex 15.0953 17.287 1
    endloop
  endfacet
  facet normal 0.847988 0.530016 0
    outer loop
      vertex 15.0953 17.287 0
      vertex 15.1391 17.217 1
      vertex 15.1391 17.217 0
    endloop
  endfacet
  facet normal 0.869857 0.493304 0
    outer loop
      vertex 15.0953 17.287 1
      vertex 15.0341 17.395 0
      vertex 15.0341 17.395 1
    endloop
  endfacet
  facet normal 0.869857 0.493304 0
    outer loop
      vertex 15.0341 17.395 0
      vertex 15.0953 17.287 1
      vertex 15.0953 17.287 0
    endloop
  endfacet
  facet normal 0.879323 0.476227 0
    outer loop
      vertex 15.0341 17.395 1
      vertex 14.9803 17.4942 0
      vertex 14.9803 17.4942 1
    endloop
  endfacet
  facet normal 0.879323 0.476227 0
    outer loop
      vertex 14.9803 17.4942 0
      vertex 15.0341 17.395 1
      vertex 15.0341 17.395 0
    endloop
  endfacet
  facet normal 0.899575 0.436766 0
    outer loop
      vertex 14.9803 17.4942 1
      vertex 14.9591 17.538 0
      vertex 14.9591 17.538 1
    endloop
  endfacet
  facet normal 0.899575 0.436766 0
    outer loop
      vertex 14.9591 17.538 0
      vertex 14.9803 17.4942 1
      vertex 14.9803 17.4942 0
    endloop
  endfacet
  facet normal -1 0 0
    outer loop
      vertex 14.9591 15.53 0
      vertex 14.9591 17.538 1
      vertex 14.9591 17.538 0
    endloop
  endfacet
  facet normal -1 -0 0
    outer loop
      vertex 14.9591 17.538 1
      vertex 14.9591 15.53 0
      vertex 14.9591 15.53 1
    endloop
  endfacet
  facet normal 0 -1 0
    outer loop
      vertex 14.9591 15.53 0
      vertex 16.2951 15.53 1
      vertex 14.9591 15.53 1
    endloop
  endfacet
  facet normal 0 -1 -0
    outer loop
      vertex 16.2951 15.53 1
      vertex 14.9591 15.53 0
      vertex 16.2951 15.53 0
    endloop
  endfacet
  facet normal 1 -0 0
    outer loop
      vertex 16 0 13
      vertex 16 2 7
      vertex 16 2 13
    endloop
  endfacet
  facet normal 1 0 0
    outer loop
      vertex 16 2 7
      vertex 16 0 13
      vertex 16 0 7
    endloop
  endfacet
  facet normal -1 0 0
    outer loop
      vertex 29 0 7
      vertex 29 2 13
      vertex 29 2 7
    endloop
  endfacet
  facet normal -1 -0 0
    outer loop
      vertex 29 2 13
      vertex 29 0 7
      vertex 29 0 13
    endloop
  endfacet
  facet normal -0 0 1
    outer loop
      vertex 16 2 7
      vertex 29 0 7
      vertex 29 2 7
    endloop
  endfacet
  facet normal 0 0 1
    outer loop
      vertex 29 0 7
      vertex 16 2 7
      vertex 16 0 7
    endloop
  endfacet
  facet normal 1 -0 0
    outer loop
      vertex 33 0 13
      vertex 33 2 3
      vertex 33 2 13
    endloop
  endfacet
  facet normal 1 0 0
    outer loop
      vertex 33 2 3
      vertex 33 0 13
      vertex 33 0 3
    endloop
  endfacet
  facet normal -1 0 0
    outer loop
      vertex 34 0 3
      vertex 34 2 13
      vertex 34 2 3
    endloop
  endfacet
  facet normal -1 -0 0
    outer loop
      vertex 34 2 13
      vertex 34 0 3
      vertex 34 0 13
    endloop
  endfacet
  facet normal -0 0 1
    outer loop
      vertex 33 2 3
      vertex 34 0 3
      vertex 34 2 3
    endloop
  endfacet
  facet normal 0 0 1
    outer loop
      vertex 34 0 3
      vertex 33 2 3
      vertex 33 0 3
    endloop
  endfacet
  facet normal 1 -0 0
    outer loop
      vertex 39 0 13
      vertex 39 2 3
      vertex 39 2 13
    endloop
  endfacet
  facet normal 1 0 0
    outer loop
      vertex 39 2 3
      vertex 39 0 13
      vertex 39 0 3
    endloop
  endfacet
  facet normal -1 0 0
    outer loop
      vertex 40 0 3
      vertex 40 2 13
      vertex 40 2 3
    endloop
  endfacet
  facet normal -1 -0 0
    outer loop
      vertex 40 2 13
      vertex 40 0 3
      vertex 40 0 13
    endloop
  endfacet
  facet normal -0 0 1
    outer loop
      vertex 39 2 3
      vertex 40 0 3
      vertex 40 2 3
    endloop
  endfacet
  facet normal 0 0 1
    outer loop
      vertex 40 0 3
      vertex 39 2 3
      vertex 39 0 3
    endloop
  endfacet
endsolid OpenSCAD_Model
