solid OpenSCAD_Model
  facet normal -1 0 0
    outer loop
      vertex 0 0 0
      vertex 0 31.8 13.5
      vertex 0 31.8 0
    endloop
  endfacet
  facet normal -1 -0 0
    outer loop
      vertex 0 31.8 13.5
      vertex 0 0 0
      vertex 0 0 13.5
    endloop
  endfacet
  facet normal 0 0 1
    outer loop
      vertex 44.3 31.8 13.5
      vertex 42.3 29.8 13.5
      vertex 44.3 0 13.5
    endloop
  endfacet
  facet normal 0 0 1
    outer loop
      vertex 44.3 31.8 13.5
      vertex 2 29.8 13.5
      vertex 42.3 29.8 13.5
    endloop
  endfacet
  facet normal 0 0 1
    outer loop
      vertex 2 29.8 13.5
      vertex 0 31.8 13.5
      vertex 2 2 13.5
    endloop
  endfacet
  facet normal -0 0 1
    outer loop
      vertex 0 31.8 13.5
      vertex 2 29.8 13.5
      vertex 44.3 31.8 13.5
    endloop
  endfacet
  facet normal -0 0 1
    outer loop
      vertex 42.3 2 13.5
      vertex 44.3 0 13.5
      vertex 42.3 29.8 13.5
    endloop
  endfacet
  facet normal -0 0 1
    outer loop
      vertex 2 2 13.5
      vertex 44.3 0 13.5
      vertex 42.3 2 13.5
    endloop
  endfacet
  facet normal 0 0 1
    outer loop
      vertex 2 2 13.5
      vertex 0 0 13.5
      vertex 44.3 0 13.5
    endloop
  endfacet
  facet normal 0 0 1
    outer loop
      vertex 0 0 13.5
      vertex 2 2 13.5
      vertex 0 31.8 13.5
    endloop
  endfacet
  facet normal 1 -0 0
    outer loop
      vertex 44.3 0 13.5
      vertex 44.3 31.8 0
      vertex 44.3 31.8 13.5
    endloop
  endfacet
  facet normal 1 0 0
    outer loop
      vertex 44.3 31.8 0
      vertex 44.3 0 13.5
      vertex 44.3 0 0
    endloop
  endfacet
  facet normal 0 1 -0
    outer loop
      vertex 44.3 31.8 0
      vertex 0 31.8 13.5
      vertex 44.3 31.8 13.5
    endloop
  endfacet
  facet normal 0 1 0
    outer loop
      vertex 0 31.8 13.5
      vertex 44.3 31.8 0
      vertex 0 31.8 0
    endloop
  endfacet
  facet normal 0 0 -1
    outer loop
      vertex 0 0 0
      vertex 44.3 31.8 0
      vertex 44.3 0 0
    endloop
  endfacet
  facet normal -0 0 -1
    outer loop
      vertex 44.3 31.8 0
      vertex 0 0 0
      vertex 0 31.8 0
    endloop
  endfacet
  facet normal 0 -1 0
    outer loop
      vertex 0 0 0
      vertex 44.3 0 13.5
      vertex 0 0 13.5
    endloop
  endfacet
  facet normal 0 -1 -0
    outer loop
      vertex 44.3 0 13.5
      vertex 0 0 0
      vertex 44.3 0 0
    endloop
  endfacet
  facet normal 1 -0 0
    outer loop
      vertex 2 2 13.5
      vertex 2 29.8 2
      vertex 2 29.8 13.5
    endloop
  endfacet
  facet normal 1 0 0
    outer loop
      vertex 2 29.8 2
      vertex 2 2 13.5
      vertex 2 2 2
    endloop
  endfacet
  facet normal -1 0 0
    outer loop
      vertex 42.3 2 2
      vertex 42.3 29.8 13.5
      vertex 42.3 29.8 2
    endloop
  endfacet
  facet normal -1 -0 0
    outer loop
      vertex 42.3 29.8 13.5
      vertex 42.3 2 2
      vertex 42.3 2 13.5
    endloop
  endfacet
  facet normal 0 -1 0
    outer loop
      vertex 2 29.8 2
      vertex 42.3 29.8 13.5
      vertex 2 29.8 13.5
    endloop
  endfacet
  facet normal 0 -1 -0
    outer loop
      vertex 42.3 29.8 13.5
      vertex 2 29.8 2
      vertex 42.3 29.8 2
    endloop
  endfacet
  facet normal -0 0 1
    outer loop
      vertex 2 29.8 2
      vertex 42.3 2 2
      vertex 42.3 29.8 2
    endloop
  endfacet
  facet normal 0 0 1
    outer loop
      vertex 42.3 2 2
      vertex 2 29.8 2
      vertex 2 2 2
    endloop
  endfacet
  facet normal 0 1 -0
    outer loop
      vertex 42.3 2 2
      vertex 2 2 13.5
      vertex 42.3 2 13.5
    endloop
  endfacet
  facet normal 0 1 0
    outer loop
      vertex 2 2 13.5
      vertex 42.3 2 2
      vertex 2 2 2
    endloop
  endfacet
endsolid OpenSCAD_Model
